<?xml version="1.0" encoding="utf-8"?>
<!-- Generator: Adobe Illustrator 27.8.1, SVG Export Plug-In . SVG Version: 6.00 Build 0)  -->
<svg version="1.1" xmlns="http://www.w3.org/2000/svg" xmlns:xlink="http://www.w3.org/1999/xlink" x="0px" y="0px"
	 viewBox="0 0 1920 1080" style="enable-background:new 0 0 1920 1080;" xml:space="preserve">
<style type="text/css">
	.st0{display:none;}
	.st1{display:inline;stroke:#000000;stroke-miterlimit:10;}
	.st2{fill:none;}
	.st3{display:inline;opacity:0;}
	.st4{font-family:'BlowBrush';}
	.st5{font-size:200px;}
	.st6{stroke:#FFFFFF;stroke-miterlimit:10;}
	.st7{fill:#FFFFFF;stroke:#FFFFFF;stroke-miterlimit:10;}
</style>
<g id="Background" class="st0">
	<rect x="0.5" y="-0.5" class="st1" width="1920" height="1080"/>
</g>
<g id="Camada_4">
	<rect x="349.24" y="636.18" class="st2" width="1621.18" height="367.06"/>
	<text transform="matrix(1 0 0 1 349.2354 775.2637)" class="st0"><tspan x="0" y="0" class="st3 st4 st5">purple smoke</tspan></text>
	<text transform="matrix(1 0 0 1 334.1763 795.0586)" class="st4 st5">Purple Smoke</text>
</g>
<g id="Camada_3">
	<g>
		<path class="st6" d="M862.98,551.32c0,0,8.04,10.05,63.01,6.04c54.97-4.02,67.71-35.53,67.71-35.53s-42.23,32.85-76.42,26.14
			C883.09,541.26,859.63,540.59,862.98,551.32z"/>
		<path class="st6" d="M1008.45,512.44c0,0,3.35-0.67,29.49-18.77c26.14-18.1,30.17-25.05,30.17-25.05s10.06,11.64,46.25,11.64
			c36.2,0,82.45-32.18,82.45-32.18s-24.13,20.11-13.41,24.8c10.73,4.69,57.31-22.79,57.31-48.93c0-26.14,0-26.14,0-26.14
			s31.34-24.8,20.19-57.65c-11.14-32.85-35.28-35.53-35.28-35.53s-1.34-23.46-22.12-33.52c-20.78-10.06-16.42,2.35-8.04,10.73
			c8.38,8.38,38.21,75.08-22.79,112.62c0,0,35.86-71.39,8.71-98.54c0,0,6.37-46.59-12.07-65.02c-18.44-18.44-90.5-61-134.74,11.4
			c0,0,23.46-16.76,60.33-5.36c36.87,11.4,34.19,45.58,34.19,45.58s-33.53-51.62-84.81-26.81c0,0-29.15-16.76-35.85,3.35
			c0,0-14.75,0.67-14.75-10.06c0-10.73,28.15-5.36,36.87-25.47c8.71-20.11,8.71-75.08-30.84-87.82c0,0,4.02-38.21-34.19-49.61
			c-38.21-11.4-93.63-10.06-111.84,34.86c0,0,54.86-32.85,87.04-21.45c32.18,11.4,43.57,46.92,43.57,46.92s4.69-16.09-42.23-22.79
			c-46.92-6.7-65.02,2.68-65.02,2.68s-29.66,2.01-73.48,2.01c-43.83,0-53.88,50.28-53.88,50.28s25.47-37.54,58.32-33.52
			c32.85,4.02,33.52,8.71,33.52,8.71s-24.13-8.04-43.91-1.34c-19.78,6.7-32.85,46.59-20.45,58.99c0,0-9.38-16.09-61.67,6.7
			s-41.23,84.8-27.48,98.54c0,0-11.42,12.07-11.42,29.5c0,17.43,26.16,32.85,26.16,32.85s-9.05,6.37,7.37,22.79
			c16.42,16.42,36.87,10.05,36.87,10.05s12.07,12.74,32.18,12.74c20.11,0,29.5-16.76,20.11-26.14c0,0-8.71,30.84-46.25,6.03
			c-37.54-24.8-0.67-61.67,18.1-58.32c18.77,3.35,20.11,16.76,20.11,16.76s-0.67,12.74,17.43,18.1c18.1,5.36,38.46,4.69,38.46,4.69
			s-21.03,6.7-11.65,27.48c9.39,20.78,23.17,33.39,11.65,44.91c-11.52,11.52-35.78,68.38-75.33,68.38c0,0,31.51,11.4,61-18.1
			c29.5-29.5,40.22-55.64,40.22-55.64s-9.39-6.7-5.36-21.45c4.02-14.75,18.77-22.12,18.77-22.12s-12.07-2.68-7.37-22.12
			c4.69-19.44,1.34-30.17-21.45-27.48c-22.79,2.68-30.17-40.22-10.73-44.24c0,0,20.11,32.85,50.95,36.87
			c30.84,4.02-1,88.15-6.03,93.18c0,0,24.13-40.22,53.63-47.6c29.49-7.37,30.17,31.51,20.78,58.99
			c-9.39,27.48-87.48,43.24-79.77,50.94c7.71,7.71-47.6,24.81-47.6,24.81s31.51-3.35,55.3-17.09c0,0,17.76,5.03,60.67-17.09
			c42.9-22.12,56.98-44.24,56.98-44.24s-11.4-12.07,9.38-21.45c20.78-9.39,20.11,15.42,20.11,15.42s13.07,6.37,4.02,15.42
			S1008.45,512.44,1008.45,512.44z"/>
		<path class="st7" d="M920.46,141.95c0,0,34.35-3,56.43,8.5c22.07,11.5,4.07,33.5,4.07,33.5s11.5-3,11.5,18s-25,46-47.5,46
			s-33-0.5-56-11.5c-23-11-92.75-6.75-95-4.5s29.5-14.5,66-16.5c36.5-2,79.5,25.5,94,11c14.5-14.5,11.5-38-12.5-38
			C941.46,188.45,971.89,157.13,920.46,141.95z"/>
		<path class="st7" d="M793.84,200.45c0,0,0.11-27,19.86-34.5c19.75-7.5,50.71,6.75,50.71,6.75S805.98,162.95,793.84,200.45z"/>
		<path class="st7" d="M1003.88,386.28c-7.97-25.78-11.78-58.03,14.96-60.3c6.16-0.52,12.31,0.75,18.36,2.02
			c-4.9-16.44-3.01-37.35,16.75-41.3c29.99-6,39,11.99,39,12c1.51,3.03,37.25-8.53,49.02,12.37c4.43,7.86,3.77,17.88-0.98,25.44
			c21.14,2.47,29.36,36.25-3.95,54.96c14.2-7.98,9.93-29.05-0.27-37.39c-7.77-6.35-19.42-11-29.57-8.14
			c5.74-1.62,12.46-3.36,17.31-6.99c7.2-5.4,7.16-13.76,1.07-20.03c-15.6-16.06-33.8-7.62-36.83-8.07
			c-3.77-0.56-11.55-8.46-23.21-8.46c-18.71,1.12-16.18,22.51-18.7,35.2c0.63-3.19-22.11-19.24-35.01,12.51
			C1007.17,361.6,1004.47,373.89,1003.88,386.28z"/>
		<path class="st7" d="M1052.46,429.95c0,0-16.5-13.5,0-30s26.83,0,26.83,0s12.23-16.5,31.7-8.25c19.47,8.25,13.47,24,13.47,24
			s35.79,9.21,8.25,36.75c0,0,12.75-24.81-15.75-31.53c0,0-0.67-26.22-22.84-22.47c0,0-7.04,1.21-14.83,9
			c0,0-14.26-14.02-22.33,2.25C1048.89,425.97,1052.46,429.95,1052.46,429.95z"/>
		<g>
			<path class="st7" d="M715.46,348.45c16-31,52.58-23,52.58-23s-8.83-20,17.79-36c26.63-16,58.63,11,58.63,11
				s2.99-16.07,39.99-16.07c37.01,0,25.51,33.57,34.01,42.07c8.5,8.5,51.5-1.63,51.5,21.68c0,20.02-3.31,28.73-4.25,30.8
				c1.61-3.35,11.18-23.99,11.18-40.48c0-18-41.43-27-41.43-27s-2.3-25.2-21.68-44.58c-19.37-19.37-51.81-7.72-51.81-7.72
				s-1.88-9.21-17.45-15.21c-15.57-6-43.57,9.5-43.57,9.5s-16-3-34,1c-18,4-29,21-29,39s-16.08,23.5-25.79,28.5
				c-9.08,4.67-26.26,22.02-20.7,48.77c5.9,5.11,11.3,8.31,11.3,8.31s-9.05,6.37,7.37,22.79c16.42,16.42,36.87,10.05,36.87,10.05
				S699.46,379.45,715.46,348.45z"/>
			<path class="st7" d="M965.71,378.93c-0.15,0.31-0.25,0.52-0.25,0.52S965.55,379.27,965.71,378.93z"/>
		</g>
		<path class="st6" d="M1078.73,497.45c0,0-67.28,71.41-136.28,71.41C942.46,568.86,1048.37,527.81,1078.73,497.45z"/>
		<path class="st6" d="M647.59,568.86c0,0,44.37,6.09,88.87-2.91c44.5-9,89,7.92,100.5,2.46c11.5-5.46-26-25.96-77.5-19.46
			C707.96,555.45,702.22,563.27,647.59,568.86z"/>
		<path class="st6" d="M757.41,432.2c0,3,8.04,13,17.79,8c0,0,15.75,1.25,13.75-4.75c-2-6-11.25,2-20.25-3.25
			S757.41,429.2,757.41,432.2z"/>
		<path class="st6" d="M793.84,431.45c0,0,2.86,9.75,6.61,6S800.29,425.01,793.84,431.45z"/>
		<path class="st6" d="M992.46,86.45c0,0,6,8.88,10.5,20.69s-2.5,17.07,5.5,17.07c8,0,10.5-7.89,8-17.07
			c-2.5-9.19,0.93,1.81,0.93-14.19c0-16-10.93-28.02-22.93-25.01c-12,3.01-17,1.56-33-0.46c-16-2.03-16.5,12.6-2,12.6
			C973.96,80.08,992.46,86.45,992.46,86.45z"/>
		<path class="st6" d="M1055.46,209.08c0,0,3-10.88,20.62-10.88s40.12,2.25,32.25-5.62s-15,2.62-18-4.12s3.05-11.62-11.6-14.62
			c-14.65-3-23.28,6.07-23.28,8.29c0,2.21-9.75,13.84-4.88,22.46S1055.46,209.08,1055.46,209.08z"/>
	</g>
</g>
</svg>
